<mxfile host="65bd71144e">
    <diagram id="tr8WCDj-hul7nBdrf4UF" name="Страница 1">
        <mxGraphModel dx="988" dy="994" grid="1" gridSize="10" guides="1" tooltips="1" connect="0" arrows="1" fold="1" page="1" pageScale="1" pageWidth="827" pageHeight="1169" math="0" shadow="0">
            <root>
                <mxCell id="0"/>
                <mxCell id="1" parent="0"/>
                <mxCell id="2" style="edgeStyle=orthogonalEdgeStyle;rounded=0;orthogonalLoop=1;jettySize=auto;html=1;" parent="1" source="3" target="4" edge="1">
                    <mxGeometry relative="1" as="geometry"/>
                </mxCell>
                <mxCell id="3" value="Запуск" style="rounded=1;whiteSpace=wrap;html=1;arcSize=50;" parent="1" vertex="1">
                    <mxGeometry x="305" y="20" width="140" height="40" as="geometry"/>
                </mxCell>
                <mxCell id="195" style="edgeStyle=none;html=1;" parent="1" source="4" edge="1">
                    <mxGeometry relative="1" as="geometry">
                        <mxPoint x="375" y="200" as="targetPoint"/>
                    </mxGeometry>
                </mxCell>
                <mxCell id="4" value="int n = 10;" style="rounded=0;whiteSpace=wrap;html=1;" parent="1" vertex="1">
                    <mxGeometry x="315" y="120" width="120" height="50" as="geometry"/>
                </mxCell>
                <mxCell id="5" value="#include &amp;lt;iostream&amp;gt;&lt;br&gt;using namespace std;&lt;br&gt;int main() {" style="strokeWidth=2;html=1;shape=mxgraph.flowchart.annotation_2;align=left;labelPosition=right;pointerEvents=1;" parent="1" vertex="1">
                    <mxGeometry x="455" y="50" width="20" height="60" as="geometry"/>
                </mxCell>
                <mxCell id="6" value="" style="endArrow=none;dashed=1;html=1;entryX=0;entryY=0.5;entryDx=0;entryDy=0;entryPerimeter=0;" parent="1" target="5" edge="1">
                    <mxGeometry width="50" height="50" relative="1" as="geometry">
                        <mxPoint x="375" y="80" as="sourcePoint"/>
                        <mxPoint x="465" y="70" as="targetPoint"/>
                    </mxGeometry>
                </mxCell>
                <mxCell id="7" value="Конец" style="rounded=1;whiteSpace=wrap;html=1;arcSize=50;" parent="1" vertex="1">
                    <mxGeometry x="298.13" y="2420" width="140" height="40" as="geometry"/>
                </mxCell>
                <mxCell id="10" value="return 0;&lt;br&gt;}" style="strokeWidth=2;html=1;shape=mxgraph.flowchart.annotation_2;align=left;labelPosition=right;pointerEvents=1;" parent="1" vertex="1">
                    <mxGeometry x="469.88" y="2370" width="20" height="60" as="geometry"/>
                </mxCell>
                <mxCell id="11" value="" style="endArrow=none;dashed=1;html=1;entryX=0;entryY=0.5;entryDx=0;entryDy=0;entryPerimeter=0;edgeStyle=orthogonalEdgeStyle;" parent="1" edge="1">
                    <mxGeometry width="50" height="50" relative="1" as="geometry">
                        <mxPoint x="369.88" y="2400" as="sourcePoint"/>
                        <mxPoint x="469.88" y="2400" as="targetPoint"/>
                    </mxGeometry>
                </mxCell>
                <mxCell id="236" style="edgeStyle=none;html=1;" parent="1" source="234" edge="1">
                    <mxGeometry relative="1" as="geometry">
                        <mxPoint x="375" y="280" as="targetPoint"/>
                    </mxGeometry>
                </mxCell>
                <mxCell id="234" value="int a[100] = {};" style="rounded=0;whiteSpace=wrap;html=1;" parent="1" vertex="1">
                    <mxGeometry x="315" y="200" width="120" height="50" as="geometry"/>
                </mxCell>
                <mxCell id="370" value="" style="edgeStyle=orthogonalEdgeStyle;html=1;rounded=0;" edge="1" parent="1" source="252" target="367">
                    <mxGeometry relative="1" as="geometry"/>
                </mxCell>
                <mxCell id="252" value="int b[100] = {};" style="rounded=0;whiteSpace=wrap;html=1;" parent="1" vertex="1">
                    <mxGeometry x="315" y="280" width="120" height="50" as="geometry"/>
                </mxCell>
                <mxCell id="382" value="" style="edgeStyle=orthogonalEdgeStyle;rounded=0;html=1;" edge="1" parent="1" source="334" target="381">
                    <mxGeometry relative="1" as="geometry"/>
                </mxCell>
                <mxCell id="334" value="cout &amp;lt;&amp;lt; a[i] &amp;lt;&amp;lt; &quot; &quot;;" style="shape=parallelogram;perimeter=parallelogramPerimeter;whiteSpace=wrap;html=1;fixedSize=1;" parent="1" vertex="1">
                    <mxGeometry x="258.38" y="920" width="233.25" height="40" as="geometry"/>
                </mxCell>
                <mxCell id="394" value="" style="edgeStyle=orthogonalEdgeStyle;rounded=0;html=1;" edge="1" parent="1" source="339" target="393">
                    <mxGeometry relative="1" as="geometry"/>
                </mxCell>
                <mxCell id="339" value="cout &amp;lt;&amp;lt; endl;" style="shape=parallelogram;perimeter=parallelogramPerimeter;whiteSpace=wrap;html=1;fixedSize=1;" parent="1" vertex="1">
                    <mxGeometry x="253.38" y="1280" width="243.25" height="40" as="geometry"/>
                </mxCell>
                <mxCell id="366" style="edgeStyle=orthogonalEdgeStyle;rounded=0;html=1;" parent="1" target="7" edge="1">
                    <mxGeometry relative="1" as="geometry">
                        <mxPoint x="368.1876923076919" y="2359.9999999999995" as="sourcePoint"/>
                    </mxGeometry>
                </mxCell>
                <mxCell id="371" style="edgeStyle=orthogonalEdgeStyle;rounded=0;html=1;" edge="1" parent="1" source="367" target="368">
                    <mxGeometry relative="1" as="geometry"/>
                </mxCell>
                <mxCell id="367" value="int inul = 0;" style="rounded=0;whiteSpace=wrap;html=1;" vertex="1" parent="1">
                    <mxGeometry x="315" y="360" width="120" height="50" as="geometry"/>
                </mxCell>
                <mxCell id="372" value="" style="edgeStyle=orthogonalEdgeStyle;rounded=0;html=1;" edge="1" parent="1" source="368" target="369">
                    <mxGeometry relative="1" as="geometry"/>
                </mxCell>
                <mxCell id="368" value="bool f = false;" style="rounded=0;whiteSpace=wrap;html=1;" vertex="1" parent="1">
                    <mxGeometry x="315" y="440" width="120" height="50" as="geometry"/>
                </mxCell>
                <mxCell id="374" value="" style="edgeStyle=orthogonalEdgeStyle;rounded=0;html=1;" edge="1" parent="1" source="369" target="373">
                    <mxGeometry relative="1" as="geometry"/>
                </mxCell>
                <mxCell id="369" value="int cont = 0;" style="rounded=0;whiteSpace=wrap;html=1;" vertex="1" parent="1">
                    <mxGeometry x="315" y="520" width="120" height="50" as="geometry"/>
                </mxCell>
                <mxCell id="376" value="1" style="edgeStyle=orthogonalEdgeStyle;rounded=0;html=1;" edge="1" parent="1" source="373" target="375">
                    <mxGeometry relative="1" as="geometry"/>
                </mxCell>
                <mxCell id="379" value="0" style="edgeStyle=orthogonalEdgeStyle;rounded=0;html=1;" edge="1" parent="1" source="373" target="378">
                    <mxGeometry x="-0.7867" relative="1" as="geometry">
                        <Array as="points">
                            <mxPoint x="510" y="630"/>
                            <mxPoint x="510" y="790"/>
                            <mxPoint x="375" y="790"/>
                        </Array>
                        <mxPoint as="offset"/>
                    </mxGeometry>
                </mxCell>
                <mxCell id="373" value="for (int i = 0; i &amp;lt; n; i++)" style="shape=hexagon;perimeter=hexagonPerimeter2;whiteSpace=wrap;html=1;fixedSize=1;" vertex="1" parent="1">
                    <mxGeometry x="290" y="600" width="170" height="60" as="geometry"/>
                </mxCell>
                <mxCell id="377" style="edgeStyle=orthogonalEdgeStyle;rounded=0;html=1;entryX=-0.012;entryY=0.5;entryDx=0;entryDy=0;entryPerimeter=0;" edge="1" parent="1" source="375" target="373">
                    <mxGeometry relative="1" as="geometry">
                        <Array as="points">
                            <mxPoint x="375" y="770"/>
                            <mxPoint x="250" y="770"/>
                            <mxPoint x="250" y="630"/>
                        </Array>
                    </mxGeometry>
                </mxCell>
                <mxCell id="375" value="a[i] = rand() % 100;" style="rounded=0;whiteSpace=wrap;html=1;" vertex="1" parent="1">
                    <mxGeometry x="315" y="700" width="120" height="50" as="geometry"/>
                </mxCell>
                <mxCell id="380" value="1" style="edgeStyle=orthogonalEdgeStyle;rounded=0;html=1;" edge="1" parent="1" source="378" target="334">
                    <mxGeometry relative="1" as="geometry"/>
                </mxCell>
                <mxCell id="392" value="0" style="edgeStyle=orthogonalEdgeStyle;rounded=0;html=1;" edge="1" parent="1" source="378" target="339">
                    <mxGeometry x="-0.8528" relative="1" as="geometry">
                        <Array as="points">
                            <mxPoint x="610" y="850"/>
                            <mxPoint x="610" y="1250"/>
                            <mxPoint x="375" y="1250"/>
                        </Array>
                        <mxPoint as="offset"/>
                    </mxGeometry>
                </mxCell>
                <mxCell id="378" value="for (int i = 0; i &amp;lt; n; i++)" style="shape=hexagon;perimeter=hexagonPerimeter2;whiteSpace=wrap;html=1;fixedSize=1;" vertex="1" parent="1">
                    <mxGeometry x="290" y="820" width="170" height="60" as="geometry"/>
                </mxCell>
                <mxCell id="385" value="1" style="edgeStyle=orthogonalEdgeStyle;rounded=0;html=1;" edge="1" parent="1" source="381" target="383">
                    <mxGeometry relative="1" as="geometry">
                        <Array as="points">
                            <mxPoint x="180" y="1015"/>
                        </Array>
                    </mxGeometry>
                </mxCell>
                <mxCell id="388" value="0" style="edgeStyle=orthogonalEdgeStyle;rounded=0;html=1;" edge="1" parent="1" source="381">
                    <mxGeometry x="-0.8298" relative="1" as="geometry">
                        <mxPoint x="370" y="1210" as="targetPoint"/>
                        <Array as="points">
                            <mxPoint x="570" y="1015"/>
                            <mxPoint x="570" y="1210"/>
                        </Array>
                        <mxPoint as="offset"/>
                    </mxGeometry>
                </mxCell>
                <mxCell id="381" value="if ((a[i] == 0) &amp;amp;&amp;amp; (f == false))" style="rhombus;whiteSpace=wrap;html=1;" vertex="1" parent="1">
                    <mxGeometry x="260" y="980" width="230" height="70" as="geometry"/>
                </mxCell>
                <mxCell id="387" value="" style="edgeStyle=orthogonalEdgeStyle;rounded=0;html=1;" edge="1" parent="1" source="383" target="384">
                    <mxGeometry relative="1" as="geometry"/>
                </mxCell>
                <mxCell id="383" value="inul = i;" style="rounded=0;whiteSpace=wrap;html=1;" vertex="1" parent="1">
                    <mxGeometry x="120" y="1050" width="120" height="50" as="geometry"/>
                </mxCell>
                <mxCell id="389" style="edgeStyle=orthogonalEdgeStyle;rounded=0;html=1;" edge="1" parent="1" source="384">
                    <mxGeometry relative="1" as="geometry">
                        <mxPoint x="370" y="1210" as="targetPoint"/>
                        <Array as="points">
                            <mxPoint x="180" y="1210"/>
                        </Array>
                    </mxGeometry>
                </mxCell>
                <mxCell id="384" value="f = true;" style="rounded=0;whiteSpace=wrap;html=1;" vertex="1" parent="1">
                    <mxGeometry x="120" y="1130" width="120" height="50" as="geometry"/>
                </mxCell>
                <mxCell id="390" value="" style="endArrow=classic;html=1;rounded=0;entryX=-0.003;entryY=0.495;entryDx=0;entryDy=0;entryPerimeter=0;" edge="1" parent="1" target="378">
                    <mxGeometry width="50" height="50" relative="1" as="geometry">
                        <mxPoint x="370" y="1210" as="sourcePoint"/>
                        <mxPoint x="190" y="950" as="targetPoint"/>
                        <Array as="points">
                            <mxPoint x="370" y="1230"/>
                            <mxPoint x="90" y="1230"/>
                            <mxPoint x="90" y="850"/>
                        </Array>
                    </mxGeometry>
                </mxCell>
                <mxCell id="396" value="1" style="edgeStyle=orthogonalEdgeStyle;rounded=0;html=1;" edge="1" parent="1" source="393" target="395">
                    <mxGeometry relative="1" as="geometry"/>
                </mxCell>
                <mxCell id="399" value="0" style="edgeStyle=orthogonalEdgeStyle;rounded=0;html=1;" edge="1" parent="1" source="393" target="398">
                    <mxGeometry x="-0.831" relative="1" as="geometry">
                        <Array as="points">
                            <mxPoint x="500" y="1390"/>
                            <mxPoint x="500" y="1560"/>
                            <mxPoint x="375" y="1560"/>
                        </Array>
                        <mxPoint as="offset"/>
                    </mxGeometry>
                </mxCell>
                <mxCell id="393" value="for (int i = inul; i &amp;lt; n; i++)" style="shape=hexagon;perimeter=hexagonPerimeter2;whiteSpace=wrap;html=1;fixedSize=1;" vertex="1" parent="1">
                    <mxGeometry x="290" y="1360" width="170" height="60" as="geometry"/>
                </mxCell>
                <mxCell id="397" style="edgeStyle=orthogonalEdgeStyle;rounded=0;html=1;" edge="1" parent="1" source="395">
                    <mxGeometry relative="1" as="geometry">
                        <mxPoint x="290" y="1389" as="targetPoint"/>
                        <Array as="points">
                            <mxPoint x="375" y="1540"/>
                            <mxPoint x="240" y="1540"/>
                            <mxPoint x="240" y="1389"/>
                        </Array>
                    </mxGeometry>
                </mxCell>
                <mxCell id="395" value="a[i] = a[i + 1];" style="rounded=0;whiteSpace=wrap;html=1;" vertex="1" parent="1">
                    <mxGeometry x="315.01" y="1470" width="120" height="50" as="geometry"/>
                </mxCell>
                <mxCell id="401" value="1" style="edgeStyle=orthogonalEdgeStyle;rounded=0;html=1;" edge="1" parent="1" source="398" target="400">
                    <mxGeometry relative="1" as="geometry"/>
                </mxCell>
                <mxCell id="398" value="for (int i = inul; i &amp;lt; n; i++)" style="shape=hexagon;perimeter=hexagonPerimeter2;whiteSpace=wrap;html=1;fixedSize=1;" vertex="1" parent="1">
                    <mxGeometry x="290" y="1580" width="170" height="60" as="geometry"/>
                </mxCell>
                <mxCell id="406" value="1" style="edgeStyle=orthogonalEdgeStyle;rounded=0;html=1;" edge="1" parent="1" source="400" target="402">
                    <mxGeometry relative="1" as="geometry"/>
                </mxCell>
                <mxCell id="410" value="0" style="edgeStyle=orthogonalEdgeStyle;rounded=0;html=1;" edge="1" parent="1" source="400" target="405">
                    <mxGeometry relative="1" as="geometry"/>
                </mxCell>
                <mxCell id="400" value="if (a[i] % 2 == 0)" style="rhombus;whiteSpace=wrap;html=1;" vertex="1" parent="1">
                    <mxGeometry x="285.01" y="1684" width="180" height="70" as="geometry"/>
                </mxCell>
                <mxCell id="408" style="edgeStyle=orthogonalEdgeStyle;rounded=0;html=1;" edge="1" parent="1" source="402" target="403">
                    <mxGeometry relative="1" as="geometry"/>
                </mxCell>
                <mxCell id="402" value="b[cont] = a[i];" style="rounded=0;whiteSpace=wrap;html=1;" vertex="1" parent="1">
                    <mxGeometry x="140" y="1760" width="120" height="50" as="geometry"/>
                </mxCell>
                <mxCell id="409" style="edgeStyle=orthogonalEdgeStyle;rounded=0;html=1;" edge="1" parent="1" source="403" target="404">
                    <mxGeometry relative="1" as="geometry"/>
                </mxCell>
                <mxCell id="403" value="cont++;" style="rounded=0;whiteSpace=wrap;html=1;" vertex="1" parent="1">
                    <mxGeometry x="140" y="1830" width="120" height="50" as="geometry"/>
                </mxCell>
                <mxCell id="412" style="edgeStyle=orthogonalEdgeStyle;rounded=0;html=1;" edge="1" parent="1" source="404">
                    <mxGeometry relative="1" as="geometry">
                        <mxPoint x="370" y="1980" as="targetPoint"/>
                        <Array as="points">
                            <mxPoint x="200" y="1980"/>
                        </Array>
                    </mxGeometry>
                </mxCell>
                <mxCell id="404" value="b[cont] = a[i - 1] + 2;" style="rounded=0;whiteSpace=wrap;html=1;" vertex="1" parent="1">
                    <mxGeometry x="140" y="1900" width="120" height="50" as="geometry"/>
                </mxCell>
                <mxCell id="413" style="edgeStyle=orthogonalEdgeStyle;rounded=0;html=1;" edge="1" parent="1" source="405">
                    <mxGeometry relative="1" as="geometry">
                        <mxPoint x="370" y="1980" as="targetPoint"/>
                        <Array as="points">
                            <mxPoint x="550" y="1980"/>
                        </Array>
                    </mxGeometry>
                </mxCell>
                <mxCell id="405" value="b[cont] = a[i];" style="rounded=0;whiteSpace=wrap;html=1;" vertex="1" parent="1">
                    <mxGeometry x="490" y="1760" width="120" height="50" as="geometry"/>
                </mxCell>
                <mxCell id="420" value="" style="edgeStyle=orthogonalEdgeStyle;rounded=0;html=1;" edge="1" parent="1" source="411" target="417">
                    <mxGeometry relative="1" as="geometry"/>
                </mxCell>
                <mxCell id="411" value="cont++;" style="rounded=0;whiteSpace=wrap;html=1;" vertex="1" parent="1">
                    <mxGeometry x="313.5" y="2020" width="109.5" height="50" as="geometry"/>
                </mxCell>
                <mxCell id="415" value="" style="endArrow=classic;html=1;rounded=0;entryX=0.516;entryY=0;entryDx=0;entryDy=0;entryPerimeter=0;" edge="1" parent="1" target="411">
                    <mxGeometry width="50" height="50" relative="1" as="geometry">
                        <mxPoint x="370" y="1980" as="sourcePoint"/>
                        <mxPoint x="360" y="2000" as="targetPoint"/>
                    </mxGeometry>
                </mxCell>
                <mxCell id="422" value="1" style="edgeStyle=orthogonalEdgeStyle;rounded=0;html=1;" edge="1" parent="1" source="417" target="421">
                    <mxGeometry relative="1" as="geometry"/>
                </mxCell>
                <mxCell id="424" value="0" style="edgeStyle=orthogonalEdgeStyle;rounded=0;html=1;" edge="1" parent="1" source="417" target="423">
                    <mxGeometry x="-0.7713" relative="1" as="geometry">
                        <Array as="points">
                            <mxPoint x="520" y="2130"/>
                            <mxPoint x="520" y="2290"/>
                            <mxPoint x="368" y="2290"/>
                        </Array>
                        <mxPoint as="offset"/>
                    </mxGeometry>
                </mxCell>
                <mxCell id="417" value="for (int i = 0; i &amp;lt; cont; i++)" style="shape=hexagon;perimeter=hexagonPerimeter2;whiteSpace=wrap;html=1;fixedSize=1;" vertex="1" parent="1">
                    <mxGeometry x="283.25" y="2100" width="170" height="60" as="geometry"/>
                </mxCell>
                <mxCell id="418" style="edgeStyle=orthogonalEdgeStyle;rounded=0;html=1;entryX=-0.012;entryY=0.5;entryDx=0;entryDy=0;entryPerimeter=0;" edge="1" parent="1" source="421" target="417">
                    <mxGeometry relative="1" as="geometry">
                        <Array as="points">
                            <mxPoint x="370" y="2270"/>
                            <mxPoint x="220" y="2270"/>
                            <mxPoint x="220" y="2130"/>
                        </Array>
                        <mxPoint x="370" y="2250" as="sourcePoint"/>
                    </mxGeometry>
                </mxCell>
                <mxCell id="421" value="cout &amp;lt;&amp;lt; b[i] &amp;lt;&amp;lt; &quot; &quot;;" style="shape=parallelogram;perimeter=parallelogramPerimeter;whiteSpace=wrap;html=1;fixedSize=1;" vertex="1" parent="1">
                    <mxGeometry x="246.63" y="2200" width="243.25" height="40" as="geometry"/>
                </mxCell>
                <mxCell id="423" value="cout &amp;lt;&amp;lt; endl;" style="shape=parallelogram;perimeter=parallelogramPerimeter;whiteSpace=wrap;html=1;fixedSize=1;" vertex="1" parent="1">
                    <mxGeometry x="240" y="2320" width="243.25" height="40" as="geometry"/>
                </mxCell>
            </root>
        </mxGraphModel>
    </diagram>
</mxfile>